<svg id="Candado" xmlns="http://www.w3.org/2000/svg" xmlns:xlink="http://www.w3.org/1999/xlink" width="139.445" height="169" viewBox="0 0 139.445 169">
  <defs>
    <linearGradient id="linear-gradient" x1="0.319" y1="0.043" x2="0.879" y2="1" gradientUnits="objectBoundingBox">
      <stop offset="0" stop-color="#6eb78c"/>
      <stop offset="1" stop-color="#4aae95"/>
    </linearGradient>
    <clipPath id="clip-path">
      <rect id="Rectángulo_1562" data-name="Rectángulo 1562" width="139.445" height="169" fill="url(#linear-gradient)"/>
    </clipPath>
  </defs>
  <g id="Grupo_4305" data-name="Grupo 4305" clip-path="url(#clip-path)">
    <path id="Trazado_11890" data-name="Trazado 11890" d="M64.768,0c3.8.839,7.737,1.275,11.362,2.587,15.328,5.547,25.06,16.368,29.167,32.141a42.79,42.79,0,0,1,1.037,15.549c-.635,5.774-6.315,11.269-12.092,12.171A14.906,14.906,0,0,1,76.947,47.2c.14-5.634-1.615-10.429-6.045-14.157-7.763-6.531-20.75-2.977-23.952,6.681a18.924,18.924,0,0,0-1.01,5.638c-.1,9.13-.047,18.262-.044,27.394,0,.216.039.432.086.911h2.062q29.54,0,59.079.005c6.358,0,11.394,2.494,14.134,8.4a17.3,17.3,0,0,1,1.507,6.993c.111,21.508.087,43.017.055,64.525-.014,9.164-6.317,15.4-15.5,15.4q-45.877.017-91.754,0c-9.342,0-15.534-6.151-15.544-15.484q-.037-32.18,0-64.36c.007-7.637,4.055-13.072,11.176-14.963A40.7,40.7,0,0,1,16.23,73.5v-1.75c0-8.251.044-16.5-.01-24.754C16.138,34.51,20.1,23.558,28.637,14.4A44.053,44.053,0,0,1,56.9.269,12.54,12.54,0,0,0,58.166,0ZM61.406,160.5c15.178,0,30.356-.095,45.532.056,4.745.047,7.467-2.837,7.437-7.5-.137-21.171-.059-42.343-.061-63.515,0-5.089-2.255-7.357-7.313-7.358q-45.616,0-91.231,0c-5.01,0-7.342,2.337-7.344,7.378q-.007,31.758,0,63.516c0,5.162,2.274,7.426,7.447,7.427q22.767,0,45.533,0M37.382,73.669v-1.93c0-8.525-.026-17.05.021-25.575a30.061,30.061,0,0,1,.459-5.575A24.02,24.02,0,0,1,59.817,21.225c10.388-.8,20.416,5.89,24.107,15.962,1.337,3.647,1.325,7.425,1.582,11.2a6.105,6.105,0,0,0,6.4,5.773,6.23,6.23,0,0,0,6.153-5.92A37.686,37.686,0,0,0,95.1,30.687C86.8,12.12,66.579,3.856,47.617,11.236c-12.665,4.929-22.465,18.6-22.766,32.142-.215,9.73-.11,19.467-.141,29.2,0,.313.06.625.109,1.09H37.382Z" transform="translate(0)" fill="url(#linear-gradient)"/>
    <path id="Trazado_11891" data-name="Trazado 11891" d="M281.279,101.1a3.881,3.881,0,0,1,2.01-2.839c4.927-2.876,9.852-5.757,14.822-8.557a4.29,4.29,0,0,1,5.756,1.535,4.22,4.22,0,0,1-1.533,5.741c-4.907,2.909-9.834,5.789-14.831,8.539-2.991,1.646-6.341-.436-6.224-4.419" transform="translate(-164.998 -52.304)" fill="url(#linear-gradient)"/>
    <path id="Trazado_11892" data-name="Trazado 11892" d="M285.416,150.44a16.285,16.285,0,0,1,2.409.916q7.011,3.984,13.971,8.057c2.393,1.4,3.206,3.938,1.991,6-1.273,2.159-3.724,2.738-6.167,1.348q-7.153-4.067-14.249-8.234a4.347,4.347,0,0,1-2.106-4.92,4.649,4.649,0,0,1,4.152-3.166" transform="translate(-164.9 -88.249)" fill="url(#linear-gradient)"/>
    <path id="Trazado_11893" data-name="Trazado 11893" d="M108.959,264.525c0-3.795.045-7.591-.04-11.384a3.5,3.5,0,0,0-.864-2.136,18.871,18.871,0,1,1,27.39-.08,4.3,4.3,0,0,0-1.024,2.566c-.08,7.369-.039,14.739-.049,22.109,0,3.427-1.623,5.053-5.014,5.058q-7.672.012-15.345,0-5.026-.009-5.05-5.079c-.017-3.685,0-7.37,0-11.055m8.508,7.548h8.493v-1.888c0-6.043.115-12.09-.051-18.128a7.921,7.921,0,0,1,2.917-6.733c3.264-2.888,4.061-6.727,2.669-10.823a9.847,9.847,0,0,0-8.611-6.928,10.3,10.3,0,0,0-10.7,6.076,10.17,10.17,0,0,0,2.658,11.973,6.963,6.963,0,0,1,2.665,6c-.131,6.205-.043,12.415-.043,18.623Z" transform="translate(-60.302 -128.482)" fill="url(#linear-gradient)"/>
  </g>
</svg>
