<svg id="dinero" xmlns="http://www.w3.org/2000/svg" xmlns:xlink="http://www.w3.org/1999/xlink" width="154.443" height="179.295" viewBox="0 0 154.443 179.295">
  <defs>
    <linearGradient id="linear-gradient" x1="0.074" y1="0.013" x2="0.875" y2="0.979" gradientUnits="objectBoundingBox">
      <stop offset="0" stop-color="#62ae62"/>
      <stop offset="1" stop-color="#2da69b"/>
    </linearGradient>
    <clipPath id="clip-path">
      <rect id="Rectángulo_1556" data-name="Rectángulo 1556" width="154.443" height="179.295" fill="url(#linear-gradient)"/>
    </clipPath>
    <filter id="Trazado_11814" x="-9" y="-6" width="172.443" height="197.295" filterUnits="userSpaceOnUse">
      <feOffset dy="3" input="SourceAlpha"/>
      <feGaussianBlur stdDeviation="3" result="blur"/>
      <feFlood flood-opacity="0.141"/>
      <feComposite operator="in" in2="blur"/>
      <feComposite in="SourceGraphic"/>
    </filter>
  </defs>
  <g id="Grupo_4286" data-name="Grupo 4286" clip-path="url(#clip-path)">
    <g transform="matrix(1, 0, 0, 1, 0, 0)" filter="url(#Trazado_11814)">
      <path id="Trazado_11814-2" data-name="Trazado 11814" d="M81.422,179.295c-4.137-1.7-5.517-4.865-5.283-9.186.22-4.073.123-8.169.023-12.252-.08-3.289.834-5.982,4-7.707-7.664-7.446-9.2-17.053-9.97-27.171h-1.9q-13.3,0-26.61,0c-4.891,0-6.954-2.035-6.96-6.864-.008-6.536-.015-13.072.015-19.608a3.864,3.864,0,0,1,.439-2.322,3.4,3.4,0,0,1,2.444-1.2c.779.094,1.6,1,2.112,1.743a3.966,3.966,0,0,1,.231,2.046q.022,9.628,0,19.257c0,1.057.07,1.726,1.457,1.722q24.159-.065,48.319-.035c.171,0,.342-.047.922-.477a7.476,7.476,0,0,1-1.475-1.029c-1.684-1.907-3.269-3.9-4.982-5.78a2.6,2.6,0,0,0-1.727-.727c-7-.049-14.005-.027-21.008-.034-3.549,0-3.919-.317-4.623-3.78a6.431,6.431,0,0,0-5.02-5.019c-3.4-.657-3.808-1.124-3.808-4.64q0-29.149.015-58.3c0-.749,0-1.5,0-2.382H40.082c-.036.7-.1,1.428-.105,2.156-.006,14.706,0,44.427-.005,59.133,0,2.858-.8,4.109-2.632,4.121-1.846.012-2.619-1.191-2.62-4.1,0-5.3,0-25.622,0-31.226H32.572c-6.477,0-12.955.016-19.433,0C5.023,65.608.033,60.648.019,52.552q-.035-19.783,0-39.566C.038,5.012,5.1,0,13.068,0Q77.231,0,141.393,0c7.952,0,13.01,5.023,13.028,13q.044,19.783,0,39.566c-.016,8.1-5.007,13.038-13.145,13.06-7.47.02-14.939,0-22.409,0h-2.1c0,2.134-.072,4.1.05,6.057a2.466,2.466,0,0,0,1.052,1.42c4.286,3.228,8.538,6.509,12.926,9.594,8.71,6.121,11.43,14.58,9.605,24.679-2.456,13.591-5.147,27.139-7.731,40.706-.1.509-.131,1.03-.211,1.669,4,1.6,4.983,4.8,4.838,8.762-.148,4.021-.181,8.059.007,12.077.2,4.266-1.382,7.209-5.455,8.693H94.732c-1.127-.9-2.143-1.861-1.519-3.509.612-1.619,1.961-1.763,3.445-1.755,5.252.029,27.66.02,32.911.007,1.948,0,2.42-.439,2.431-2.351q.041-7.265,0-14.53c-.01-1.948-.463-2.394-2.381-2.4q-22.846-.014-45.691,0c-1.988,0-2.479.494-2.485,2.476q-.02,7.09,0,14.18c0,2.177.466,2.622,2.7,2.624q8.053.009,16.106-.005a2.666,2.666,0,0,1,2.812,1.647,2.55,2.55,0,0,1-1.026,3.224,1.665,1.665,0,0,0-.3.388Zm-5.911-56.316c.116,1.524.177,2.8.315,4.067.559,5.136,1.614,10.144,4.263,14.662,2.866,4.89,7.1,7.722,12.842,7.768,10.912.088,21.825.01,32.738.051,1.11,0,1.477-.346,1.679-1.425,1.441-7.734,3-15.446,4.443-23.18,1.295-6.93,2.7-13.848,3.673-20.826.946-6.815-1.335-12.509-7.081-16.624-2.94-2.106-5.814-4.3-8.72-6.455-.867-.642-1.744-1.272-2.641-1.927-.141.282-.229.376-.23.471-.014,7.878-.037,15.756.01,23.633a2.615,2.615,0,0,0,.84,1.576c1.116,1.109,2.366,2.082,3.493,3.181a2.572,2.572,0,0,1,.22,3.749,2.646,2.646,0,0,1-3.636.192c-.328-.241-.627-.523-.931-.8-4.659-4.157-9.33-8.3-13.965-12.482a9.206,9.206,0,0,0-5.937-2.641,8.53,8.53,0,0,0-8.076,5.11,8.308,8.308,0,0,0,2.068,9.608c3.517,3.243,7.129,6.383,10.7,9.571a17.559,17.559,0,0,1,5.6,9.284,2.585,2.585,0,0,1-1.793,3.156,2.621,2.621,0,0,1-3.226-1.7c-.165-.434-.245-.9-.395-1.341a10.954,10.954,0,0,0-4.64-6.167c-1.206-.7-3.013-.484-4.55-.5-5.592-.048-11.186-.019-17.055-.019m41.341-62.594c8.281,0,16.388.012,24.5,0q7.8-.016,7.823-7.906.018-19.692,0-39.384c-.006-5.189-2.694-7.836-7.9-7.836q-64.065,0-128.13,0c-5.191,0-7.866,2.656-7.871,7.86q-.018,19.692,0,39.384.007,7.865,7.845,7.882,9.89.024,19.78,0c.558,0,1.115-.071,1.69-.11V52.331H32.559c-4.668,0-9.336.015-14-.006-3.733-.016-5.236-1.492-5.243-5.189q-.027-14.353,0-28.707c.007-3.579,1.576-5.12,5.127-5.12q58.814,0,117.628,0c3.455,0,5.045,1.544,5.054,5.016q.039,14.441,0,28.882c-.008,3.59-1.534,5.1-5.143,5.115-5.718.027-11.436.008-17.154.008h-1.976ZM98.109,90.635V35.518H53.285v53.1c0,1.984-.041,3.969.031,5.95.017.476.306,1.241.648,1.36a12.214,12.214,0,0,1,8,8.493H82.746c.5-7.448,5.6-13.9,15.363-13.785m37.68-71.944H18.716V30.06H135.79ZM111.411,99.1V35.543h-7.8a1.592,1.592,0,0,0-.089.293q-.032,27.918-.044,55.836a1.563,1.563,0,0,0,.364,1.08c2.431,2.085,4.9,4.122,7.572,6.347m5.446-52.156h18.89V35.507h-18.89Zm-98.185-.017h15.9V35.513h-15.9Z" transform="translate(0 0)" fill="url(#linear-gradient)"/>
    </g>
    <path id="Trazado_11815" data-name="Trazado 11815" d="M144.287,133.361a15.455,15.455,0,1,1,15.392-15.531,15.416,15.416,0,0,1-15.392,15.531m-.152-5.251a10.2,10.2,0,1,0-10.141-10.3,10.213,10.213,0,0,0,10.141,10.3" transform="translate(-68.512 -54.523)" fill="url(#linear-gradient)"/>
  </g>
</svg>
