<svg id="face" xmlns="http://www.w3.org/2000/svg" width="26.383" height="26.383" viewBox="0 0 26.383 26.383">
  <path id="Trazado_11833" data-name="Trazado 11833" d="M26.383,13.191A13.191,13.191,0,1,0,11.13,26.223V17H7.781V13.191H11.13V10.285c0-3.306,1.97-5.132,4.983-5.132a20.293,20.293,0,0,1,2.953.258V8.657H17.4a1.907,1.907,0,0,0-2.15,2.06v2.475h3.659L18.326,17H15.253v9.218a13.2,13.2,0,0,0,11.13-13.031" transform="translate(0 0)" fill="#2da69b"/>
  <path id="Trazado_11834" data-name="Trazado 11834" d="M50.36,38.219l.585-3.813H47.287V31.931a1.907,1.907,0,0,1,2.15-2.06H51.1V26.625a20.278,20.278,0,0,0-2.953-.258c-3.013,0-4.983,1.826-4.983,5.132v2.906H39.815v3.813h3.349v9.218a13.336,13.336,0,0,0,4.122,0V38.219Z" transform="translate(-32.034 -21.214)" fill="#fff"/>
</svg>
