<svg xmlns="http://www.w3.org/2000/svg" width="26.383" height="26.383" viewBox="0 0 26.383 26.383">
  <g id="insta" transform="translate(0)">
    <g id="Grupo_4292" data-name="Grupo 4292" transform="translate(0 0)">
      <path id="Trazado_11821" data-name="Trazado 11821" d="M461.521,0A13.191,13.191,0,1,1,448.33,13.191,13.192,13.192,0,0,1,461.521,0" transform="translate(-448.33 0)" fill="#2da69b"/>
      <path id="Trazado_11822" data-name="Trazado 11822" d="M481.636,26.5c2.218,0,2.48.008,3.356.048a4.594,4.594,0,0,1,1.542.286,2.75,2.75,0,0,1,1.576,1.576,4.6,4.6,0,0,1,.286,1.542c.04.876.048,1.139.048,3.356s-.008,2.48-.048,3.356a4.6,4.6,0,0,1-.286,1.542,2.75,2.75,0,0,1-1.576,1.576,4.6,4.6,0,0,1-1.542.286c-.876.04-1.138.048-3.356.048s-2.481-.008-3.356-.048a4.6,4.6,0,0,1-1.542-.286,2.75,2.75,0,0,1-1.576-1.576,4.592,4.592,0,0,1-.286-1.542c-.04-.876-.048-1.139-.048-3.356s.008-2.48.048-3.356a4.592,4.592,0,0,1,.286-1.542,2.75,2.75,0,0,1,1.576-1.576,4.594,4.594,0,0,1,1.542-.286c.876-.04,1.139-.048,3.356-.048m0-1.5c-2.256,0-2.539.01-3.424.05a6.1,6.1,0,0,0-2.016.386,4.247,4.247,0,0,0-2.429,2.429,6.1,6.1,0,0,0-.386,2.016c-.04.886-.05,1.169-.05,3.424s.01,2.539.05,3.424a6.1,6.1,0,0,0,.386,2.016,4.247,4.247,0,0,0,2.429,2.429,6.1,6.1,0,0,0,2.016.386c.886.04,1.169.05,3.424.05s2.539-.01,3.425-.05a6.1,6.1,0,0,0,2.016-.386,4.247,4.247,0,0,0,2.429-2.429,6.1,6.1,0,0,0,.386-2.016c.04-.886.05-1.169.05-3.424s-.01-2.539-.05-3.424a6.1,6.1,0,0,0-.386-2.016,4.247,4.247,0,0,0-2.429-2.429,6.1,6.1,0,0,0-2.016-.386c-.886-.04-1.169-.05-3.425-.05" transform="translate(-468.444 -20.115)" fill="#fff"/>
    </g>
    <path id="Trazado_11823" data-name="Trazado 11823" d="M498.271,45.676a4.265,4.265,0,1,0,4.265,4.265,4.265,4.265,0,0,0-4.265-4.265m0,7.034a2.769,2.769,0,1,1,2.769-2.769,2.769,2.769,0,0,1-2.769,2.769" transform="translate(-485.08 -36.75)" fill="#fff"/>
    <path id="Trazado_11824" data-name="Trazado 11824" d="M535.41,40.71a1,1,0,1,1-1-1,1,1,0,0,1,1,1" transform="translate(-516.789 -31.952)" fill="#fff"/>
  </g>
</svg>
