<svg id="link" xmlns="http://www.w3.org/2000/svg" width="26.383" height="26.383" viewBox="0 0 26.383 26.383">
  <path id="Trazado_11829" data-name="Trazado 11829" d="M698.878,210.209a13.191,13.191,0,1,1-13.192-13.191,13.192,13.192,0,0,1,13.192,13.191" transform="translate(-672.495 -197.018)" fill="#2da69b"/>
  <path id="Trazado_11830" data-name="Trazado 11830" d="M732.433,248.465c.217-.243.4-.491.618-.7a3.389,3.389,0,0,1,2.438-.962,5.644,5.644,0,0,1,1.533.187,3,3,0,0,1,2.128,2.238,9.379,9.379,0,0,1,.283,2.564c0,1.822-.005,3.645,0,5.467,0,.171-.047.215-.215.214q-1.408-.011-2.816,0c-.165,0-.2-.05-.2-.206q.008-2.6,0-5.2a4.685,4.685,0,0,0-.151-1.291,1.452,1.452,0,0,0-1.6-1.132,1.745,1.745,0,0,0-1.834,1.742,6.542,6.542,0,0,0-.05.813c0,1.686,0,3.373,0,5.059,0,.168-.041.218-.213.216q-1.419-.013-2.837,0c-.152,0-.2-.04-.2-.193q.007-5.008,0-10.016c0-.165.054-.2.21-.2q1.347.01,2.694,0c.165,0,.208.052.2.209-.009.4,0,.8,0,1.2" transform="translate(-718.221 -237.073)" fill="#fefefe"/>
  <path id="Trazado_11831" data-name="Trazado 11831" d="M705.552,253.335c0,1.652,0,3.3,0,4.955,0,.184-.045.239-.235.237-.938-.01-1.877-.008-2.815,0-.15,0-.2-.037-.2-.192q.007-5.016,0-10.033c0-.138.033-.188.18-.187.952.006,1.9.008,2.856,0,.183,0,.208.069.207.226,0,1.665,0,3.33,0,5" transform="translate(-696.483 -238.128)" fill="#fefefe"/>
  <path id="Trazado_11832" data-name="Trazado 11832" d="M704.788,223.484a1.874,1.874,0,1,1-1.871-1.865,1.881,1.881,0,0,1,1.871,1.865" transform="translate(-695.461 -216.811)" fill="#fefefe"/>
</svg>
