<svg xmlns="http://www.w3.org/2000/svg" xmlns:xlink="http://www.w3.org/1999/xlink" width="96.688" height="44.385" viewBox="0 0 96.688 44.385">
  <defs>
    <clipPath id="clip-path">
      <rect id="Rectángulo_1550" data-name="Rectángulo 1550" width="96.688" height="44.385" fill="#522d6d"/>
    </clipPath>
  </defs>
  <g id="logo-boom-card" clip-path="url(#clip-path)">
    <path id="Trazado_11800" data-name="Trazado 11800" d="M16.291,15.434h0a6.814,6.814,0,0,0-1.011-1.308,6.288,6.288,0,0,0-.7-.616,6.077,6.077,0,0,0,.964-1.532,6.281,6.281,0,0,0,.53-2.558,6.436,6.436,0,0,0-.49-2.511A6.171,6.171,0,0,0,14.22,4.891a6.426,6.426,0,0,0-2.033-1.339,6.506,6.506,0,0,0-2.533-.49H1.245A1.168,1.168,0,0,0,0,4.335V24.292a1.15,1.15,0,0,0,.393.919,1.3,1.3,0,0,0,.852.3H10.6a6.182,6.182,0,0,0,2.618-.563,6.685,6.685,0,0,0,2.079-1.5,7.037,7.037,0,0,0,1.376-2.17,6.9,6.9,0,0,0,.5-2.6,6.372,6.372,0,0,0-.229-1.706,6.445,6.445,0,0,0-.655-1.537M13.2,18.677a3.081,3.081,0,0,1-.787,2.063,2.792,2.792,0,0,1-.847.634,2.208,2.208,0,0,1-.991.228H3.907v-5.68h6.665a2.351,2.351,0,0,1,1.015.218,2.7,2.7,0,0,1,.837.6,2.941,2.941,0,0,1,.566.885,2.689,2.689,0,0,1,.206,1.051m-1.3-8.224a2.653,2.653,0,0,1-.527.83,2.335,2.335,0,0,1-.782.537,2.5,2.5,0,0,1-.993.2H3.907V6.968H9.626a2.726,2.726,0,0,1,1.017.181,2.215,2.215,0,0,1,.769.5,2.273,2.273,0,0,1,.5.769,2.856,2.856,0,0,1-.013,2.035" transform="translate(0 0.792)" fill="#522d6d"/>
    <path id="Trazado_11801" data-name="Trazado 11801" d="M34.78,15.282a9.768,9.768,0,0,0-.359-2.645A10.053,10.053,0,0,0,33.4,10.248a10.286,10.286,0,0,0-3.6-3.6,9.913,9.913,0,0,0-2.385-1.02,9.728,9.728,0,0,0-2.631-.359,9.6,9.6,0,0,0-3.862.793,10.228,10.228,0,0,0-3.171,2.159A10.431,10.431,0,0,0,15.6,11.4a9.757,9.757,0,0,0-.436,6.529,10.136,10.136,0,0,0,2.586,4.4,10.05,10.05,0,0,0,4.407,2.578,9.868,9.868,0,0,0,5.264,0,10.055,10.055,0,0,0,4.406-2.578A10.377,10.377,0,0,0,33.4,20.31a9.76,9.76,0,0,0,1.381-5.028m-10-6.207a5.294,5.294,0,0,1,2.28.5,6.237,6.237,0,0,1,1.887,1.368,6.573,6.573,0,0,1,1.275,1.993,6.176,6.176,0,0,1,0,4.7,6.346,6.346,0,0,1-1.271,1.955,6.2,6.2,0,0,1-1.887,1.336,5.418,5.418,0,0,1-2.285.491,5.5,5.5,0,0,1-2.307-.491,6.26,6.26,0,0,1-1.9-1.337,6.352,6.352,0,0,1-1.285-1.956,6.091,6.091,0,0,1,0-4.69,6.616,6.616,0,0,1,1.289-2,6.282,6.282,0,0,1,1.9-1.37,5.368,5.368,0,0,1,2.3-.5" transform="translate(3.829 1.363)" fill="#522d6d"/>
    <path id="Trazado_11802" data-name="Trazado 11802" d="M33.462,20.307a10.088,10.088,0,0,0,5.973,4.6,9.864,9.864,0,0,0,5.263,0A10.1,10.1,0,0,0,47.08,23.9,10.206,10.206,0,0,0,49.1,22.33a10.356,10.356,0,0,0,1.572-2.02A9.866,9.866,0,0,0,51.7,17.927a9.927,9.927,0,0,0,0-5.289,10.089,10.089,0,0,0-1.021-2.389,10.286,10.286,0,0,0-3.6-3.6A9.864,9.864,0,0,0,44.7,5.629a9.721,9.721,0,0,0-2.631-.359,9.6,9.6,0,0,0-3.862.793,10.235,10.235,0,0,0-3.171,2.159A10.438,10.438,0,0,0,32.878,11.4a9.778,9.778,0,0,0-.436,6.529,10.213,10.213,0,0,0,1.02,2.378m8.6-11.232a5.29,5.29,0,0,1,2.28.5,6.217,6.217,0,0,1,1.886,1.368A6.529,6.529,0,0,1,47.5,12.94a6.168,6.168,0,0,1,0,4.7,6.287,6.287,0,0,1-1.271,1.955,6.168,6.168,0,0,1-1.886,1.336,5.414,5.414,0,0,1-2.285.491,5.5,5.5,0,0,1-2.307-.491,6.23,6.23,0,0,1-3.186-3.293,6.091,6.091,0,0,1,0-4.69,6.6,6.6,0,0,1,1.29-2,6.261,6.261,0,0,1,1.9-1.37,5.368,5.368,0,0,1,2.3-.5" transform="translate(8.3 1.363)" fill="#522d6d"/>
    <path id="Trazado_11803" data-name="Trazado 11803" d="M71.822,3.446h0a1.162,1.162,0,0,0-.9-.384H68.639a1.123,1.123,0,0,0-.743.281,1.337,1.337,0,0,0-.4.641L61.778,17.84,56.106,3.974a1.219,1.219,0,0,0-1.178-.913H52.72a1.331,1.331,0,0,0-.837.3,1.144,1.144,0,0,0-.434.877L49.188,24.227l0,.065a1.141,1.141,0,0,0,1.244,1.216h1.49a1.137,1.137,0,0,0,1.215-1.182l1.434-13.71,5.418,13.1c.33.72.774.871,1.089.871h1.391c.321,0,.774-.151,1.113-.89l5.437-13.092,1.434,13.718a1.139,1.139,0,0,0,1.244,1.182h1.49A1.139,1.139,0,0,0,74.4,24.293L72.131,4.239a1.237,1.237,0,0,0-.31-.793" transform="translate(12.727 0.792)" fill="#522d6d"/>
    <path id="Trazado_11804" data-name="Trazado 11804" d="M33.672,26.757a4.259,4.259,0,0,1,2.987-1.212,4.487,4.487,0,0,1,1.193.228,4.121,4.121,0,0,1,1.061.546,1.367,1.367,0,0,0,.281.161.925.925,0,0,0,.346.07.913.913,0,0,0,.758-.438l.436-.72a.886.886,0,0,0,.164-.52.9.9,0,0,0-.156-.5,1.214,1.214,0,0,0-.292-.3,7,7,0,0,0-1.859-.948,6.762,6.762,0,0,0-5.489.593,6.6,6.6,0,0,0-1.364,1.055,6.921,6.921,0,0,0-1.05,1.362,6.726,6.726,0,0,0-.68,1.61,6.843,6.843,0,0,0,0,3.577,6.69,6.69,0,0,0,1.723,2.961,6.858,6.858,0,0,0,1.354,1.051,6.607,6.607,0,0,0,1.606.68,6.739,6.739,0,0,0,1.792.238,6.654,6.654,0,0,0,2.151-.341,6.871,6.871,0,0,0,1.8-.921.923.923,0,0,0,.454-.794,1.02,1.02,0,0,0-.141-.5l-.457-.754a.884.884,0,0,0-.767-.485,1.114,1.114,0,0,0-.563.179,7.335,7.335,0,0,1-.733.415,5.405,5.405,0,0,1-.644.269,3.136,3.136,0,0,1-.565.14A3.945,3.945,0,0,1,32.8,31.139a3.956,3.956,0,0,1-.006-3.1,4.066,4.066,0,0,1,.876-1.28" transform="translate(7.703 5.9)" fill="#522d6d"/>
    <path id="Trazado_11805" data-name="Trazado 11805" d="M46.862,24.007a7.084,7.084,0,1,0,.12,14.167,7.829,7.829,0,0,0,4.245-1.2l.5-.307-.913-1.459-.49.287a6.118,6.118,0,0,1-3.347.916,5.32,5.32,0,1,1-.12-10.639,5.7,5.7,0,0,1,4.155,1.838l-2.739-.441-.067.318a3.093,3.093,0,0,0-1.691-.461,4.187,4.187,0,0,0-3.916,4.318A3.271,3.271,0,0,0,45.911,34.8a3.732,3.732,0,0,0,2.171-.7,3.641,3.641,0,0,0,2.3.7c1.635,0,3.545-1.132,3.545-4.318,0-3.509-3.238-6.474-7.069-6.474m.754,6.533a1.772,1.772,0,0,1-.468,1.237,1.017,1.017,0,0,1-.716.32.749.749,0,0,1-.814-.858,1.623,1.623,0,0,1,.454-1.178,1.062,1.062,0,0,1,.746-.334.74.74,0,0,1,.8.813m3.531-2.779a4.246,4.246,0,0,1,.991,2.72c0,1.465-.525,2.45-1.3,2.45-.229,0-.5-.062-.5-.352a2.124,2.124,0,0,1,.037-.361Z" transform="translate(10.29 6.212)" fill="#522d6d"/>
    <path id="Trazado_11806" data-name="Trazado 11806" d="M59.77,25.1h0a5.492,5.492,0,0,0-.691-.447,3.8,3.8,0,0,0-.717-.293,4.181,4.181,0,0,0-.769-.15,4.117,4.117,0,0,0-1.775.122,3.149,3.149,0,0,0-.7.369c-.023-.029-.048-.058-.074-.086a.93.93,0,0,0-.69-.284h-.837a.941.941,0,0,0-.647.253.923.923,0,0,0-.292.686v9.509a.9.9,0,0,0,.955.939h.836a.889.889,0,0,0,.939-.939v-6.3a1.86,1.86,0,0,1,.127-.712,1.545,1.545,0,0,1,.334-.511,1.392,1.392,0,0,1,.464-.312,1.985,1.985,0,0,1,1.367.019,3.408,3.408,0,0,1,.816.417c.045.033.084.06.113.083a.771.771,0,0,0,.482.17.865.865,0,0,0,.676-.349l.534-.819a.9.9,0,0,0,.115-.447.948.948,0,0,0-.293-.685,2.965,2.965,0,0,0-.269-.233" transform="translate(13.605 6.255)" fill="#522d6d"/>
    <path id="Trazado_11807" data-name="Trazado 11807" d="M70.436,21.892H69.6a.935.935,0,0,0-.954.939v2.8a5.99,5.99,0,0,0-.788-.423,5.447,5.447,0,0,0-2.224-.456,5.692,5.692,0,0,0-1.55.21,5.828,5.828,0,0,0-1.4.6,6.046,6.046,0,0,0-2.107,2.112,5.92,5.92,0,0,0-.6,1.4,5.849,5.849,0,0,0,0,3.108,5.812,5.812,0,0,0,.6,1.4,6.1,6.1,0,0,0,.923,1.184,5.884,5.884,0,0,0,2.583,1.513,5.712,5.712,0,0,0,1.546.21,5.511,5.511,0,0,0,2.222-.451,5.869,5.869,0,0,0,.814-.437.877.877,0,0,0,.914.7h.83a.9.9,0,0,0,.962-.939V22.831a.921.921,0,0,0-.293-.687.935.935,0,0,0-.644-.252M64.463,33.571a3.22,3.22,0,0,1-.981-.695,3.3,3.3,0,0,1-.661-1.018,3.21,3.21,0,0,1,0-2.441,3.43,3.43,0,0,1,.665-1.041,3.235,3.235,0,0,1,.982-.712,2.7,2.7,0,0,1,1.167-.258,2.772,2.772,0,0,1,1.179.259,3.255,3.255,0,0,1,.992.712,3.423,3.423,0,0,1,.672,1.044,3.145,3.145,0,0,1,0,2.433h0a3.308,3.308,0,0,1-.668,1.02,3.247,3.247,0,0,1-.992.695,2.892,2.892,0,0,1-2.358,0" transform="translate(15.467 5.665)" fill="#522d6d"/>
    <path id="Trazado_11808" data-name="Trazado 11808" d="M77.572.456h0A1.859,1.859,0,0,0,76.3,0H73.584a1.648,1.648,0,0,0-1.821,1.766V30.73a1.627,1.627,0,0,0,.6,1.347,1.931,1.931,0,0,0,1.222.42H76.3a1.649,1.649,0,0,0,1.82-1.767V1.766a1.68,1.68,0,0,0-.546-1.31" transform="translate(18.57 0)" fill="#522d6d"/>
    <path id="Trazado_11809" data-name="Trazado 11809" d="M76.084,29.456H73.316a1.771,1.771,0,0,0-1.251.485,1.73,1.73,0,0,0-.515,1.283V33.99a1.648,1.648,0,0,0,1.82,1.767h2.767A1.624,1.624,0,0,0,77.9,33.99V31.223a1.715,1.715,0,0,0-1.82-1.767" transform="translate(18.515 7.622)" fill="#522d6d"/>
  </g>
</svg>
