<svg id="mano" xmlns="http://www.w3.org/2000/svg" xmlns:xlink="http://www.w3.org/1999/xlink" width="157.511" height="155.188" viewBox="0 0 157.511 155.188">
  <defs>
    <linearGradient id="linear-gradient" x1="0.104" y1="-0.035" x2="1" y2="1" gradientUnits="objectBoundingBox">
      <stop offset="0" stop-color="#76b98a"/>
      <stop offset="1" stop-color="#2da69b"/>
    </linearGradient>
    <clipPath id="clip-path">
      <rect id="Rectángulo_1559" data-name="Rectángulo 1559" width="157.511" height="155.188" fill="url(#linear-gradient)"/>
    </clipPath>
  </defs>
  <g id="Grupo_4290" data-name="Grupo 4290" clip-path="url(#clip-path)">
    <path id="Trazado_11818" data-name="Trazado 11818" d="M0,86.795c.489-2.969.892-5.956,1.486-8.9A52.972,52.972,0,0,1,6.595,63.785,186.406,186.406,0,0,0,23.8,16.932a16.764,16.764,0,0,1,32.9.548,20.271,20.271,0,0,1-.3,7.441c-1.352,6.409-3.022,12.75-4.562,19.119-.07.288-.106.585-.157.878l.618.552a5.472,5.472,0,0,1,.754-1.484c12.925-12.963,26.017-25.764,38.765-38.9C99.8-3.145,113.182-1.177,117.8,9.472a3.861,3.861,0,0,0,.29.455c5.74-2.813,11.407-2.818,16.686.983,5.2,3.744,7.237,8.983,6.391,15.415.469.162.882.321,1.305.446a15.469,15.469,0,0,1,6.924,25.57c-2.069,2.184-4.289,4.226-6.442,6.335a48.172,48.172,0,0,1,4.087,2.805,15.334,15.334,0,0,1,.686,22.66c-5.906,5.986-11.9,11.885-17.855,17.823-10.274,10.248-20.42,20.629-30.852,30.713-12.948,12.515-28.61,17.815-46.5,16.212C26.688,146.575,5.188,126.422.866,100.7.553,98.837.288,96.968,0,95.1V86.795m9.223,4.011c.413,3.3.646,6.629,1.269,9.887,4.179,21.871,24.227,38.656,46.465,39.02a48.606,48.606,0,0,0,36.543-14.8q17.468-17.453,34.952-34.89,6.317-6.3,12.639-12.6a5.728,5.728,0,0,0,1.519-6.216,5.626,5.626,0,0,0-4.847-3.959,6.116,6.116,0,0,0-5.367,2.081q-9.623,9.632-19.287,19.224c-1.671,1.665-3.327,3.347-5.025,4.983a4.605,4.605,0,0,1-4.844,1.1,4.424,4.424,0,0,1-3.134-3.659,5.05,5.05,0,0,1,1.809-4.653q12.4-12.3,24.754-24.636c5.2-5.175,10.408-10.335,15.581-15.532,2.829-2.842,2.684-6.743-.266-9.175-2.482-2.046-5.831-1.806-8.314.663Q119.376,51.86,105.11,66.1c-2.652,2.642-5.291,5.3-7.969,7.914a4.584,4.584,0,0,1-5.1,1.116,4.463,4.463,0,0,1-3-3.934c-.212-1.842.724-3.2,1.985-4.451Q110.18,47.716,129.3,28.651c3.25-3.237,3.5-6.668.784-9.426-2.035-2.064-6.085-2.861-9.351.755-2.746,3.041-5.769,5.832-8.67,8.733q-14.8,14.795-29.584,29.6a5.153,5.153,0,0,1-4.486,1.875,4.456,4.456,0,0,1-3.852-3.1A4.681,4.681,0,0,1,75.493,51.9q9.525-9.513,19.04-19.036c4.387-4.388,8.808-8.744,13.147-13.18a5.965,5.965,0,0,0-2.116-9.937c-2.674-.977-4.863-.111-6.816,1.844Q72.987,37.4,47.187,63.167a13.247,13.247,0,0,1-1.472,1.348,4.6,4.6,0,0,1-6.8-1.333c-.946-1.482-.746-3-.357-4.587q4.377-17.905,8.7-35.822c1.084-4.476-1.17-8.5-5.284-9.472a7.36,7.36,0,0,0-9,5.834,193.87,193.87,0,0,1-18,49.019A51.911,51.911,0,0,0,9.223,90.806" transform="translate(0 0)" fill="url(#linear-gradient)"/>
    <path id="Trazado_11819" data-name="Trazado 11819" d="M296.376,325.775a4.716,4.716,0,0,1-2.216-9.081,86.875,86.875,0,0,0,9.04-4.512,42.693,42.693,0,0,0,16.492-19.158,5,5,0,0,1,3.9-3.311,4.694,4.694,0,0,1,4.977,6.617,51.066,51.066,0,0,1-7.91,12.92,53.12,53.12,0,0,1-22.369,15.968c-.757.285-1.558.455-1.912.556" transform="translate(-171.47 -170.587)" fill="url(#linear-gradient)"/>
    <path id="Trazado_11820" data-name="Trazado 11820" d="M301.793,273.427a10.98,10.98,0,0,1-.545,1.752,40.72,40.72,0,0,1-24.143,22.228c-2.823,1.01-5.511-.192-6.4-2.784a4.743,4.743,0,0,1,3.2-6.09,31.721,31.721,0,0,0,18.769-17.278,4.683,4.683,0,0,1,5.443-2.95c2.238.517,3.685,2.353,3.675,5.123" transform="translate(-159.271 -157.935)" fill="url(#linear-gradient)"/>
  </g>
</svg>
