<svg xmlns="http://www.w3.org/2000/svg" width="11.498" height="11.498" viewBox="0 0 11.498 11.498">
  <g id="telefono" transform="translate(-6.388 -6.858)">
    <path id="ic_call_24px" d="M5.312,7.976a9.676,9.676,0,0,0,4.209,4.209l1.405-1.405a.635.635,0,0,1,.652-.153,7.286,7.286,0,0,0,2.28.364.641.641,0,0,1,.639.639v2.229a.641.641,0,0,1-.639.639A10.858,10.858,0,0,1,3,3.639.641.641,0,0,1,3.639,3H5.874a.641.641,0,0,1,.639.639,7.257,7.257,0,0,0,.364,2.28.641.641,0,0,1-.16.652Z" transform="translate(3.388 3.859)" fill="#fff"/>
  </g>
</svg>
