<svg id="ticktok" xmlns="http://www.w3.org/2000/svg" width="26.383" height="26.383" viewBox="0 0 26.383 26.383">
  <path id="Trazado_11835" data-name="Trazado 11835" d="M250.548,210.209a13.192,13.192,0,1,1-13.191-13.191,13.192,13.192,0,0,1,13.191,13.191" transform="translate(-224.165 -197.018)" fill="#2da69b"/>
  <path id="Trazado_11836" data-name="Trazado 11836" d="M268.481,225.173c0-.077,0-.08-.082-.079a3.623,3.623,0,0,1-.574-.05,4.806,4.806,0,0,1-3.308-3.2,5.81,5.81,0,0,1-.091-.717c0-.091,0-.091-.091-.092h-2.69c-.177,0-.152-.022-.152.155q0,5.7,0,11.4a2.376,2.376,0,0,1-.029.422,2.466,2.466,0,0,1-2.934,2.015,3.324,3.324,0,0,1-.577-.19l-.046-.042c-.063-.053-.133-.1-.2-.144a2.424,2.424,0,0,1,.547-4.322,2.174,2.174,0,0,1,.873-.13,2.583,2.583,0,0,1,.571.088c.064.018.1,0,.1-.073,0-.024,0-.048,0-.072,0-.682-.025-2.172-.029-2.175,0-.2,0-.393,0-.589,0-.057-.027-.066-.075-.072a5.556,5.556,0,0,0-1.062-.024,5.377,5.377,0,0,0-4.509,3.154,5.382,5.382,0,0,0-.221,3.811,5.344,5.344,0,0,0,1.819,2.616,1.27,1.27,0,0,0,.279.192l.133.118a2.811,2.811,0,0,0,.449.275,5.429,5.429,0,0,0,6.572-1.319,5.285,5.285,0,0,0,1.294-3.514c.011-1.892,0-3.784,0-5.676,0-.045-.026-.109.024-.132s.078.034.115.058a6.971,6.971,0,0,0,2.286.985,6.459,6.459,0,0,0,1.454.175c.155,0,.176-.008.176-.162,0-.672-.034-2.509-.034-2.687" transform="translate(-247.898 -216.341)" fill="#fff"/>
</svg>
