<svg xmlns="http://www.w3.org/2000/svg" xmlns:xlink="http://www.w3.org/1999/xlink" width="13.021" height="13.361" viewBox="0 0 13.021 13.361">
  <defs>
    <clipPath id="clip-path">
      <rect id="Rectángulo_1553" data-name="Rectángulo 1553" width="13.021" height="13.361" fill="#fff"/>
    </clipPath>
  </defs>
  <g id="web" transform="translate(-5.348 -5.053)">
    <g id="Grupo_4254" data-name="Grupo 4254" transform="translate(5.348 5.052)">
      <g id="Grupo_4253" data-name="Grupo 4253" clip-path="url(#clip-path)">
        <path id="Trazado_11812" data-name="Trazado 11812" d="M11.884,5.149h-2.3c.019.172.043.337.054.5a.469.469,0,0,1-.412.54.479.479,0,0,1-.534-.442c-.026-.167-.049-.334-.065-.5-.008-.081-.038-.109-.12-.109q-2.01,0-4.021,0c-.093,0-.112.039-.126.12a7.44,7.44,0,0,0,0,2.519c.019.114.063.132.163.131q.96-.006,1.921,0a.476.476,0,1,1-.005.951c-.546,0-1.092,0-1.638,0H4.631c.013.052.02.093.033.132A7.4,7.4,0,0,0,6.8,12.185a.485.485,0,0,1-.326.851A6.377,6.377,0,0,1,2.316,11.5,6.24,6.24,0,0,1,.057,7.372a6.287,6.287,0,0,1,2.925-6.3,6.5,6.5,0,0,1,9.866,6.949.483.483,0,0,1-.573.392.478.478,0,0,1-.357-.593,5.568,5.568,0,0,0-.008-2.581c-.007-.028-.016-.056-.026-.09M4.637,4.181H8.371a7.612,7.612,0,0,0-1.86-3.042A7.3,7.3,0,0,0,4.637,4.181M3.406,7.9a8.565,8.565,0,0,1,0-2.752H1.137a5.177,5.177,0,0,0,0,2.752ZM7.777,1.109c.037.055.051.081.069.1A8.164,8.164,0,0,1,9.33,4.089c.029.1.087.1.164.1h1.921c.037,0,.073,0,.133-.009a5.621,5.621,0,0,0-3.771-3.07M5.229,11.939c-.047-.067-.07-.1-.1-.138A8.2,8.2,0,0,1,3.659,8.969c-.028-.1-.074-.109-.158-.108-.63,0-1.26,0-1.891,0-.041,0-.082.006-.145.011a5.62,5.62,0,0,0,3.763,3.066M1.486,4.188c.693,0,1.372,0,2.051,0,.089,0,.1-.049.122-.115a8.254,8.254,0,0,1,1.473-2.83c.022-.028.038-.06.062-.1A5.491,5.491,0,0,0,1.486,4.188" transform="translate(-0.001 0)" fill="#fff"/>
        <path id="Trazado_11813" data-name="Trazado 11813" d="M182.862,165.69c.157.336.31.641.44.955a1.285,1.285,0,0,1,.112.485.79.79,0,0,1-.479.732q-.521.254-1.051.489a.852.852,0,0,1-1.149-.433c-.156-.326-.306-.655-.467-1-.09.1-.171.19-.252.279a.849.849,0,0,1-1,.248.837.837,0,0,1-.522-.883c.067-.846.146-1.691.22-2.536.051-.583.092-1.168.159-1.749a.845.845,0,0,1,1.349-.614c.575.39,1.139.795,1.708,1.193.6.418,1.2.835,1.791,1.256a.837.837,0,0,1,.343.991.847.847,0,0,1-.8.588c-.127,0-.254,0-.408,0m-1.294,1.759.868-.405c-.031-.071-.056-.13-.082-.187-.213-.458-.43-.915-.64-1.374a.477.477,0,0,1,.444-.715c.1,0,.2,0,.3-.008l.5-.023-3.154-2.21-.332,3.8c.2-.182.369-.375.542-.564a.476.476,0,0,1,.825.125c.017.036.033.072.049.108l.679,1.454" transform="translate(-171.392 -155.071)" fill="#fff"/>
      </g>
    </g>
  </g>
</svg>
