<svg xmlns="http://www.w3.org/2000/svg" width="26.383" height="26.383" viewBox="0 0 26.383 26.383">
  <g id="youtube" transform="translate(0)">
    <path id="Trazado_11827" data-name="Trazado 11827" d="M474.713,210.209a13.192,13.192,0,1,1-13.191-13.191,13.192,13.192,0,0,1,13.191,13.191" transform="translate(-448.33 -197.018)" fill="#2da69b"/>
    <path id="Trazado_11828" data-name="Trazado 11828" d="M488.051,234.941a2.2,2.2,0,0,0-1.555-1.555,64.412,64.412,0,0,0-13.743,0,2.2,2.2,0,0,0-1.555,1.555,24.557,24.557,0,0,0,0,8.467,2.2,2.2,0,0,0,1.555,1.555,64.407,64.407,0,0,0,13.743,0,2.2,2.2,0,0,0,1.555-1.555,24.561,24.561,0,0,0,0-8.467m-10.186,6.872v-5.277l4.57,2.638Z" transform="translate(-466.433 -225.982)" fill="#fff"/>
  </g>
</svg>
